<svg xmlns="http://www.w3.org/2000/svg" xmlns:xlink="http://www.w3.org/1999/xlink" width="58" height="45.488" viewBox="0 0 58 45.488">
  <defs>
    <clipPath id="clip-path">
      <rect width="58" height="45.488" fill="none"/>
    </clipPath>
  </defs>
  <g id="Icon_book" data-name="Icon book" clip-path="url(#clip-path)">
    <g id="Path_20" data-name="Path 20" transform="translate(0 -3.5)" fill="none">
      <path d="M51.909,5.773A30.048,30.048,0,0,0,43,4.5c-4.964,0-10.309,1.018-14,3.818C25.309,5.518,19.964,4.5,15,4.5S4.691,5.518,1,8.318V45.609a1.369,1.369,0,0,0,1.273,1.273c.255,0,.382-.127.636-.127A31.068,31.068,0,0,1,15,43.955c4.964,0,10.309,1.018,14,3.818a30.661,30.661,0,0,1,14-3.818,25.908,25.908,0,0,1,12.091,2.673,1.147,1.147,0,0,0,.636.127A1.369,1.369,0,0,0,57,45.482V8.318A17.361,17.361,0,0,0,51.909,5.773Z" stroke="none"/>
      <path d="M 14.99999618530273 4.499992370605469 C 10.03636932373047 4.499992370605469 4.690906524658203 5.518184661865234 0.9999961853027344 8.318183898925781 L 0.9999961853027344 45.60908508300781 C 0.9999961853027344 46.24545288085938 1.636356353759766 46.88181304931641 2.272727966308594 46.88181304931641 C 2.527267456054688 46.88181304931641 2.654548645019531 46.75454330444336 2.909088134765625 46.75454330444336 C 6.345458984375 45.10000610351563 11.30908966064453 43.95454406738281 14.99999618530273 43.95454406738281 C 19.96363830566406 43.95454406738281 25.30909729003906 44.97272491455078 28.99999809265137 47.77272415161133 C 32.43635559082031 45.60908508300781 38.6727294921875 43.95454406738281 43 43.95454406738281 C 47.19999694824219 43.95454406738281 51.52726745605469 44.71818542480469 55.09090805053711 46.62727355957031 C 55.3454475402832 46.75454330444336 55.47272872924805 46.75454330444336 55.72726821899414 46.75454330444336 C 56.36362838745117 46.75454330444336 57 46.1181755065918 57 45.48181533813477 L 57 8.318183898925781 C 55.47272872924805 7.172725677490234 53.81817626953125 6.409095764160156 51.90908813476563 5.772724151611328 C 49.08362579345703 4.881813049316406 45.97817993164063 4.499992370605469 43 4.499992370605469 C 38.03635787963867 4.499992370605469 32.69091033935547 5.518184661865234 28.99999809265137 8.318183898925781 C 25.30909729003906 5.518184661865234 19.96363830566406 4.499992370605469 14.99999618530273 4.499992370605469 M 14.99999618530273 3.499992370605469 C 17.76303863525391 3.499992370605469 20.36035919189453 3.799083709716797 22.71980667114258 4.388942718505859 C 25.15632247924805 4.998073577880859 27.26504135131836 5.904365539550781 29 7.086894989013672 C 30.73496246337891 5.904365539550781 32.84367370605469 4.998073577880859 35.28018951416016 4.388942718505859 C 37.63964080810547 3.799083709716797 40.23695755004883 3.499992370605469 43 3.499992370605469 C 46.28844833374023 3.499992370605469 49.47314834594727 3.956104278564453 52.20980834960938 4.819015502929688 L 52.21758651733398 4.821464538574219 L 52.22531890869141 4.824043273925781 C 54.44430923461914 5.563713073730469 56.1019172668457 6.394615173339844 57.59999847412109 7.518184661865234 L 58 7.818183898925781 L 58 8.318183898925781 L 58 45.48181533813477 C 58 46.67128372192383 56.9167366027832 47.75454330444336 55.72726821899414 47.75454330444336 C 55.42350006103516 47.75454330444336 55.10937881469727 47.75454330444336 54.64369964599609 47.52170562744141 L 54.63109970092773 47.51540374755859 L 54.61868667602539 47.50875473022461 C 51.49951934814453 45.83777236938477 47.48184967041016 44.95454406738281 43 44.95454406738281 C 38.78328704833984 44.95454406738281 32.74193572998047 46.59839248657227 29.53280830383301 48.61895370483398 L 28.94706726074219 48.98776245117188 L 28.39560890197754 48.56941223144531 C 25.32282638549805 46.23833465576172 20.56550979614258 44.95454406738281 14.99999618530273 44.95454406738281 C 11.43943786621094 44.95454406738281 6.645866394042969 46.06523513793945 3.342899322509766 47.65554428100586 L 3.137287139892578 47.75454330444336 L 2.944488525390625 47.75454330444336 C 2.932819366455078 47.75830078125 2.918743133544922 47.76299285888672 2.907127380371094 47.76686477661133 C 2.778148651123047 47.80985260009766 2.562267303466797 47.88181304931641 2.272727966308594 47.88181304931641 C 1.083259582519531 47.88181304931641 -3.814697265625e-06 46.79855346679688 -3.814697265625e-06 45.60908508300781 L -3.814697265625e-06 8.318183898925781 L -3.814697265625e-06 7.821613311767578 L 0.3956069946289063 7.521495819091797 C 2.2369384765625 6.124622344970703 4.553237915039063 5.070682525634766 7.280189514160156 4.388942718505859 C 9.6396484375 3.799083709716797 12.23696899414063 3.499992370605469 14.99999618530273 3.499992370605469 Z" stroke="none" fill="#c1f7d5"/>
    </g>
    <g id="Path_81" data-name="Path 81" transform="translate(0 -3.5)" fill="none">
      <path d="M51.909,40.136A29.579,29.579,0,0,0,43,38.864a30.661,30.661,0,0,0-14,3.818V13.409A30.661,30.661,0,0,1,43,9.591a29.579,29.579,0,0,1,8.909,1.273Z" stroke="none"/>
      <path d="M 30.00000381469727 40.98476409912109 C 33.65298843383789 39.17966461181641 38.99477005004883 37.86363220214844 42.99999237060547 37.86363220214844 C 45.8400993347168 37.86363220214844 48.49380493164063 38.18082046508789 50.90908432006836 38.80772018432617 L 50.90908432006836 11.60715675354004 C 48.52765655517578 10.93249797821045 45.87120056152344 10.59090423583984 42.99999237060547 10.59090423583984 C 38.97992324829102 10.59090423583984 33.30165481567383 12.08487606048584 30.00000381469727 13.97510242462158 L 30.00000381469727 40.98476409912109 M 29.00000381469727 42.68182373046875 L 29.00000381469727 13.40909385681152 C 32.43636322021484 11.24545383453369 38.67272567749023 9.590904235839844 42.99999237060547 9.590904235839844 C 46.05454254150391 9.590904235839844 49.10909271240234 9.972723960876465 51.90908432006836 10.86363410949707 L 51.90908432006836 40.1363639831543 C 49.10909271240234 39.24545288085938 46.05454254150391 38.86363220214844 42.99999237060547 38.86363220214844 C 38.67272567749023 38.86363220214844 32.43636322021484 40.51818466186523 29.00000381469727 42.68182373046875 Z" stroke="none" fill="#c1f7d5"/>
    </g>
  </g>
</svg>
