<svg xmlns="http://www.w3.org/2000/svg" xmlns:xlink="http://www.w3.org/1999/xlink" width="58" height="58" viewBox="0 0 58 58">
  <defs>
    <clipPath id="clip-path">
      <rect width="58" height="58" fill="none"/>
    </clipPath>
  </defs>
  <g id="Icon_earth" data-name="Icon earth" clip-path="url(#clip-path)">
    <g id="Path_27" data-name="Path 27" transform="translate(-1 -1)" fill="none">
      <path d="M27.2,52.2A22.368,22.368,0,0,1,7.6,30a22.73,22.73,0,0,1,.588-5.012L21.6,38.4v2.8a5.616,5.616,0,0,0,5.6,5.6Zm19.32-7.112A5.555,5.555,0,0,0,41.2,41.2H38.4V32.8A2.808,2.808,0,0,0,35.6,30H18.8V24.4h5.6a2.808,2.808,0,0,0,2.8-2.8V16h5.6a5.616,5.616,0,0,0,5.6-5.6V9.252a22.35,22.35,0,0,1,8.12,35.84Z" stroke="none"/>
      <path d="M 26.20000076293945 51.04177856445313 L 26.20000076293945 47.72439193725586 C 23.03352928161621 47.2411003112793 20.60000038146973 44.49940490722656 20.60000038146973 41.20000076293945 L 20.60000038146973 38.8142204284668 L 8.822525024414063 27.03674507141113 C 8.673293113708496 28.05341911315918 8.600000381469727 29.03366851806641 8.600000381469727 30 C 8.600000381469727 35.24977874755859 10.51756000518799 40.29512023925781 13.99942970275879 44.20660018920898 C 17.19999122619629 47.80204391479492 21.49802017211914 50.20199584960938 26.20000076293945 51.04177856445313 M 46.76397705078125 43.26649856567383 C 49.76358413696289 39.49176025390625 51.40000152587891 34.83597183227539 51.40000152587891 30 C 51.40000152587891 25.66495132446289 50.10414886474609 21.48937034606934 47.65254974365234 17.92465972900391 C 45.54214477539063 14.85607242584229 42.70535659790039 12.41130828857422 39.38869094848633 10.78865337371826 C 39.18696212768555 14.24781703948975 36.30886459350586 17 32.79999923706055 17 L 28.20000076293945 17 L 28.20000076293945 21.59999084472656 C 28.20000076293945 23.69532012939453 26.49533081054688 25.40000152587891 24.39999961853027 25.40000152587891 L 19.79999923706055 25.40000152587891 L 19.79999923706055 29 L 35.59999847412109 29 C 37.69533157348633 29 39.40000152587891 30.70466995239258 39.40000152587891 32.79999160766602 L 39.40000152587891 40.19998931884766 L 41.20000076293945 40.19998931884766 C 43.50116348266602 40.19998931884766 45.57710266113281 41.3839225769043 46.76397705078125 43.26649856567383 M 27.20000076293945 52.20400238037109 C 16.13999938964844 50.83200073242188 7.599999904632568 41.42399978637695 7.599999904632568 30 C 7.599999904632568 28.26399993896484 7.823999881744385 26.61200141906738 8.187999725341797 24.98800086975098 L 21.60000038146973 38.40000152587891 L 21.60000038146973 41.20000076293945 C 21.60000038146973 44.27999877929688 24.1200008392334 46.79999923706055 27.20000076293945 46.79999923706055 L 27.20000076293945 52.20400238037109 Z M 46.52000045776367 45.09199905395508 C 45.79199981689453 42.82400131225586 43.72000122070313 41.19998931884766 41.20000076293945 41.19998931884766 L 38.40000152587891 41.19998931884766 L 38.40000152587891 32.79999160766602 C 38.40000152587891 31.25999069213867 37.13999938964844 30 35.59999847412109 30 L 18.79999923706055 30 L 18.79999923706055 24.40000152587891 L 24.39999961853027 24.40000152587891 C 25.94000053405762 24.40000152587891 27.20000076293945 23.14000129699707 27.20000076293945 21.59999084472656 L 27.20000076293945 16 L 32.79999923706055 16 C 35.88000106811523 16 38.40000152587891 13.48000049591064 38.40000152587891 10.40000057220459 L 38.40000152587891 9.25200080871582 C 46.60400009155273 12.58400058746338 52.40000152587891 20.6200008392334 52.40000152587891 30 C 52.40000152587891 35.82400131225586 50.15999984741211 41.11600112915039 46.52000045776367 45.09199905395508 Z" stroke="none" fill="#c1f7d5"/>
    </g>
    <g id="Path_80" data-name="Path 80" transform="translate(-1 -1)" fill="none">
      <path d="M30,2A28,28,0,1,0,58,30,28.01,28.01,0,0,0,30,2Z" stroke="none"/>
      <path d="M 30 2 C 14.54399871826172 2 2 14.54399871826172 2 30 C 2 45.45600128173828 14.54399871826172 58 30 58 C 45.45600128173828 58 58 45.45600128173828 58 30 C 58 14.54399871826172 45.45600128173828 2 30 2 M 30 1 C 33.91252136230469 1 37.70941925048828 1.767299652099609 41.28523254394531 3.280570983886719 C 44.73820877075195 4.741859436035156 47.83955001831055 6.833328247070313 50.50310897827148 9.496891021728516 C 53.16667175292969 12.16044998168945 55.25814056396484 15.26179122924805 56.71942901611328 18.71477127075195 C 58.23270034790039 22.29058074951172 59 26.08747863769531 59 30 C 59 33.91252136230469 58.23270034790039 37.70941925048828 56.71942901611328 41.28523254394531 C 55.25814056396484 44.73820877075195 53.16667175292969 47.83955001831055 50.50310897827148 50.50310897827148 C 47.83955001831055 53.16667175292969 44.73820877075195 55.25814056396484 41.28523254394531 56.71942901611328 C 37.70941925048828 58.23270034790039 33.91252136230469 59 30 59 C 26.08747863769531 59 22.29058074951172 58.23270034790039 18.71477127075195 56.71942901611328 C 15.26179122924805 55.25814056396484 12.16044998168945 53.16667175292969 9.496891021728516 50.50310897827148 C 6.833328247070313 47.83955001831055 4.741859436035156 44.73820877075195 3.280570983886719 41.28523254394531 C 1.767299652099609 37.70941925048828 1 33.91252136230469 1 30 C 1 26.08747863769531 1.767299652099609 22.29058074951172 3.280570983886719 18.71477127075195 C 4.741859436035156 15.26179122924805 6.833328247070313 12.16044998168945 9.496891021728516 9.496891021728516 C 12.16044998168945 6.833328247070313 15.26179122924805 4.741859436035156 18.71477127075195 3.280570983886719 C 22.29058074951172 1.767299652099609 26.08747863769531 1 30 1 Z" stroke="none" fill="#c1f7d5"/>
    </g>
  </g>
</svg>
