<svg xmlns="http://www.w3.org/2000/svg" xmlns:xlink="http://www.w3.org/1999/xlink" width="46.836" height="56" viewBox="0 0 46.836 56">
  <defs>
    <clipPath id="clip-path">
      <rect width="46.836" height="56" fill="none"/>
    </clipPath>
  </defs>
  <g id="Icon_flower" data-name="Icon flower" clip-path="url(#clip-path)">
    <g id="Path_23" data-name="Path 23" transform="translate(-3 -1)" fill="none">
      <path d="M26.418,57C39.35,57,49.836,46.253,49.836,33,36.9,33,26.418,43.747,26.418,57ZM9.765,25.667a6.59,6.59,0,0,0,6.505,6.667,6.364,6.364,0,0,0,3.695-1.173l-.052.507a6.507,6.507,0,1,0,13.01,0l-.052-.507a6.3,6.3,0,0,0,3.695,1.173A6.68,6.68,0,0,0,39.35,19.667,6.68,6.68,0,0,0,36.566,7a6.364,6.364,0,0,0-3.695,1.173l.052-.507a6.507,6.507,0,1,0-13.01,0l.052.507A6.3,6.3,0,0,0,16.27,7a6.68,6.68,0,0,0-2.784,12.667A6.656,6.656,0,0,0,9.765,25.667ZM26.418,13a6.669,6.669,0,1,1-6.505,6.667A6.59,6.59,0,0,1,26.418,13ZM3,33C3,46.253,13.486,57,26.418,57,26.418,43.747,15.932,33,3,33Z" stroke="none"/>
      <path d="M 27.43976020812988 55.97676467895508 C 30.10232543945313 55.85526657104492 32.68649291992188 55.25783920288086 35.13521957397461 54.19625854492188 C 37.80397033691406 53.03929138183594 40.20145034790039 51.38240051269531 42.26105880737305 49.27162170410156 C 44.32233047485352 47.15913009643555 45.94079208374023 44.69905090332031 47.07147979736328 41.95970916748047 C 48.11362457275391 39.43490600585938 48.6985969543457 36.76980972290039 48.81478118896484 34.02323532104492 C 46.15221405029297 34.14473342895508 43.56804656982422 34.74216079711914 41.11931991577148 35.80374145507813 C 38.45056915283203 36.96070861816406 36.0530891418457 38.61759948730469 33.99348068237305 40.72837829589844 C 31.93221092224121 42.84086990356445 30.31375122070313 45.30094909667969 29.18305969238281 48.04029083251953 C 28.14091682434082 50.56509399414063 27.55594444274902 53.23019027709961 27.43976020812988 55.97676467895508 M 25.3966007232666 55.97676467895508 C 25.28041648864746 53.23019027709961 24.69544410705566 50.56509399414063 23.65330123901367 48.04029083251953 C 22.52260971069336 45.30094909667969 20.90415000915527 42.84086990356445 18.84288024902344 40.72837829589844 C 16.78326988220215 38.61759948730469 14.38579082489014 36.96070861816406 11.71704006195068 35.80374145507813 C 9.268313407897949 34.74216079711914 6.684145927429199 34.14473342895508 4.021579742431641 34.02323532104492 C 4.137765407562256 36.76980972290039 4.722736358642578 39.43490600585938 5.764880657196045 41.95970916748047 C 6.895570278167725 44.69905090332031 8.514030456542969 47.15913009643555 10.5753002166748 49.27162170410156 C 12.63491058349609 51.38240051269531 15.03239059448242 53.03929138183594 17.70114135742188 54.19625854492188 C 20.14986801147461 55.25783920288086 22.73403549194336 55.85526657104492 25.3966007232666 55.97676467895508 M 26.41818046569824 37.33332824707031 C 29.43773651123047 37.33332824707031 31.89728736877441 34.81798553466797 31.92302513122559 31.71591377258301 L 31.87642097473145 31.26217079162598 L 31.64949989318848 29.05286026000977 L 33.4541015625 30.34745979309082 C 34.35314178466797 30.99242973327637 35.42924118041992 31.33333969116211 36.56605911254883 31.33333969116211 C 39.6015510559082 31.33333969116211 42.07110977172852 28.79128074645996 42.07110977172852 25.66666030883789 C 42.07110977172852 24.57279968261719 41.76519012451172 23.51347923278809 41.18643188476563 22.60321044921875 C 40.6269416809082 21.7232494354248 39.84033203125 21.01856994628906 38.91164016723633 20.56534957885742 L 37.07012939453125 19.66666030883789 L 38.91164016723633 18.76796913146973 C 39.84033203125 18.31475067138672 40.6269416809082 17.61006927490234 41.18643188476563 16.7301197052002 C 41.76519012451172 15.81984996795654 42.07110977172852 14.76053047180176 42.07110977172852 13.66666984558105 C 42.07110977172852 10.54205989837646 39.6015510559082 8 36.56605911254883 8 C 35.43587875366211 8 34.38566207885742 8.333959579467773 33.4445915222168 8.992609977722168 L 31.65299034118652 10.24652004241943 L 31.87642097473145 8.071160316467285 L 31.92302513122559 7.617415428161621 C 31.89728736877441 4.515344142913818 29.43773651123047 2 26.41818046569824 2 C 23.39862442016602 2 20.93907356262207 4.515344142913818 20.9133358001709 7.617415428161621 L 20.95993995666504 8.071160316467285 L 21.18686103820801 10.28046989440918 L 19.38226127624512 8.985870361328125 C 18.48323059082031 8.340909957885742 17.40713119506836 8 16.27029991149902 8 C 13.2348108291626 8 10.76525020599365 10.54205989837646 10.76525020599365 13.66666984558105 C 10.76525020599365 14.76053047180176 11.07117080688477 15.81984996795654 11.64993000030518 16.7301197052002 C 12.2094202041626 17.61006927490234 12.99603080749512 18.31475067138672 13.92472076416016 18.76796913146973 L 15.76622009277344 19.66666030883789 L 13.92472076416016 20.56534957885742 C 12.99603080749512 21.01856994628906 12.2094202041626 21.7232494354248 11.64993000030518 22.60321044921875 C 11.07117080688477 23.51347923278809 10.76525020599365 24.57279968261719 10.76525020599365 25.66666030883789 C 10.76525020599365 28.79128074645996 13.2348108291626 31.33333969116211 16.27029991149902 31.33333969116211 C 17.40048027038574 31.33333969116211 18.45069122314453 30.99938011169434 19.39177131652832 30.34073066711426 L 21.18337059020996 29.08679008483887 L 20.95993995666504 31.26217079162598 L 20.9133358001709 31.71591377258301 C 20.93907356262207 34.81798553466797 23.39862442016602 37.33332824707031 26.41818046569824 37.33332824707031 M 26.41818046569824 12 C 30.55648040771484 12 33.9232292175293 15.43924999237061 33.9232292175293 19.66666030883789 C 33.9232292175293 23.89407920837402 30.55648040771484 27.33333015441895 26.41818046569824 27.33333015441895 C 22.27988052368164 27.33333015441895 18.91312980651855 23.89407920837402 18.91312980651855 19.66666030883789 C 18.91312980651855 15.43924999237061 22.27988052368164 12 26.41818046569824 12 M 26.41818046569824 57 C 13.48614025115967 57 3.000000476837158 46.25333023071289 3.000000476837158 33 C 15.93204021453857 33 26.41818046569824 43.74666976928711 26.41818046569824 57 Z M 26.41818046569824 57 C 26.41818046569824 43.74666976928711 36.90431976318359 33 49.83636093139648 33 C 49.83636093139648 46.25333023071289 39.3502197265625 57 26.41818046569824 57 Z M 26.41818046569824 38.33332824707031 C 22.82739067077637 38.33332824707031 19.91312980651855 35.3466682434082 19.91312980651855 31.66666030883789 L 19.96516990661621 31.15999984741211 C 18.89834976196289 31.90666007995605 17.64937019348145 32.33333969116211 16.27029991149902 32.33333969116211 C 12.67952060699463 32.33333969116211 9.765250205993652 29.34666061401367 9.765250205993652 25.66666030883789 C 9.765250205993652 23 11.30045032501221 20.73332977294922 13.48614025115967 19.66666030883789 C 11.30045032501221 18.60000038146973 9.765250205993652 16.33333015441895 9.765250205993652 13.66666984558105 C 9.765250205993652 9.986669540405273 12.67952060699463 7 16.27029991149902 7 C 17.64937019348145 7 18.92436981201172 7.426670074462891 19.96516990661621 8.173330307006836 L 19.91312980651855 7.666669845581055 C 19.91312980651855 3.986670017242432 22.82739067077637 1 26.41818046569824 1 C 30.00897026062012 1 32.9232292175293 3.986670017242432 32.9232292175293 7.666669845581055 L 32.87118911743164 8.173330307006836 C 33.93801879882813 7.426670074462891 35.18698883056641 7 36.56605911254883 7 C 40.15684127807617 7 43.07110977172852 9.986669540405273 43.07110977172852 13.66666984558105 C 43.07110977172852 16.33333015441895 41.53591918945313 18.60000038146973 39.3502197265625 19.66666030883789 C 41.53591918945313 20.73332977294922 43.07110977172852 23 43.07110977172852 25.66666030883789 C 43.07110977172852 29.34666061401367 40.15684127807617 32.33333969116211 36.56605911254883 32.33333969116211 C 35.18698883056641 32.33333969116211 33.91199111938477 31.90666007995605 32.87118911743164 31.15999984741211 L 32.9232292175293 31.66666030883789 C 32.9232292175293 35.3466682434082 30.00897026062012 38.33332824707031 26.41818046569824 38.33332824707031 Z M 26.41818046569824 13 C 22.82739067077637 13 19.91312980651855 15.98666954040527 19.91312980651855 19.66666030883789 C 19.91312980651855 23.34666061401367 22.82739067077637 26.33333015441895 26.41818046569824 26.33333015441895 C 30.00897026062012 26.33333015441895 32.9232292175293 23.34666061401367 32.9232292175293 19.66666030883789 C 32.9232292175293 15.98666954040527 30.00897026062012 13 26.41818046569824 13 Z" stroke="none" fill="#c1f7d5"/>
    </g>
  </g>
</svg>
