<svg xmlns="http://www.w3.org/2000/svg" xmlns:xlink="http://www.w3.org/1999/xlink" width="51.333" height="56" viewBox="0 0 51.333 56">
  <defs>
    <clipPath id="clip-path">
      <rect width="51.333" height="56" fill="none"/>
    </clipPath>
  </defs>
  <g id="Icon_hand" data-name="Icon hand" clip-path="url(#clip-path)">
    <g id="Path_24" data-name="Path 24" transform="translate(-1)" fill="none">
      <path d="M52.333,12.833V46.667A9.361,9.361,0,0,1,43,56H25.967a9.317,9.317,0,0,1-6.65-2.777L1,34.6s2.94-2.87,3.033-2.917a2.765,2.765,0,0,1,1.843-.677,2.851,2.851,0,0,1,1.4.373c.093.023,10.057,5.74,10.057,5.74V9.333a3.5,3.5,0,0,1,7,0V25.667h2.333V3.5a3.5,3.5,0,0,1,7,0V25.667H36V5.833a3.5,3.5,0,0,1,7,0V25.667h2.333V12.833a3.5,3.5,0,0,1,7,0Z" stroke="none"/>
      <path d="M 30.16666603088379 1 C 28.78816604614258 1 27.66666603088379 2.121498107910156 27.66666603088379 3.5 L 27.66666603088379 25.66666984558105 L 27.66666603088379 26.66666984558105 L 26.66666603088379 26.66666984558105 L 24.33333587646484 26.66666984558105 L 23.33333587646484 26.66666984558105 L 23.33333587646484 25.66666984558105 L 23.33333587646484 9.333328247070313 C 23.33333587646484 7.954830169677734 22.21183586120605 6.833328247070313 20.83333587646484 6.833328247070313 C 19.45483779907227 6.833328247070313 18.33333587646484 7.954830169677734 18.33333587646484 9.333328247070313 L 18.33333587646484 37.12332916259766 L 18.33333587646484 38.85000991821289 L 16.83566665649414 37.99069976806641 C 13.18162536621094 35.89411926269531 7.708042144775391 32.76015472412109 6.916748046875 32.32411193847656 L 6.906215667724609 32.32147979736328 L 6.791027069091797 32.25749206542969 C 6.491256713867188 32.09095001220703 6.192165374755859 32.01000213623047 5.876667022705078 32.01000213623047 C 5.420284271240234 32.01000213623047 5.020004272460938 32.15583801269531 4.686954498291016 32.4434814453125 L 4.592357635498047 32.52519226074219 L 4.59130859375 32.52571105957031 C 4.315341949462891 32.77907180786133 3.390388488769531 33.67193222045898 2.417484283447266 34.61831665039063 L 20.02843475341797 52.52091979980469 C 21.60606575012207 54.11957931518555 23.7149658203125 55 25.96666526794434 55 L 42.99999618530273 55 C 45.21559524536133 55 47.30544662475586 54.13034057617188 48.88455581665039 52.55123138427734 C 50.46366500854492 50.97211074829102 51.33332443237305 48.88225936889648 51.33332443237305 46.66666030883789 L 51.33332443237305 12.83332824707031 C 51.33332443237305 11.45483016967773 50.21182632446289 10.33332824707031 48.83332443237305 10.33332824707031 C 47.45482635498047 10.33332824707031 46.33333587646484 11.45483016967773 46.33333587646484 12.83332824707031 L 46.33333587646484 25.66666984558105 L 46.33333587646484 26.66666984558105 L 45.33333587646484 26.66666984558105 L 42.99999618530273 26.66666984558105 L 41.99999618530273 26.66666984558105 L 41.99999618530273 25.66666984558105 L 41.99999618530273 5.833328247070313 C 41.99999618530273 4.454830169677734 40.87849426269531 3.333328247070313 39.49999618530273 3.333328247070313 C 38.12149810791016 3.333328247070313 36.99999618530273 4.454830169677734 36.99999618530273 5.833328247070313 L 36.99999618530273 25.66666984558105 L 36.99999618530273 26.66666984558105 L 35.99999618530273 26.66666984558105 L 33.66666412353516 26.66666984558105 L 32.66666412353516 26.66666984558105 L 32.66666412353516 25.66666984558105 L 32.66666412353516 3.5 C 32.66666412353516 2.121498107910156 31.545166015625 1 30.16666603088379 1 M 30.16666603088379 0 C 32.10333633422852 0 33.66666412353516 1.563331604003906 33.66666412353516 3.5 L 33.66666412353516 25.66666984558105 L 35.99999618530273 25.66666984558105 L 35.99999618530273 5.833328247070313 C 35.99999618530273 3.896671295166016 37.56332397460938 2.333328247070313 39.49999618530273 2.333328247070313 C 41.43666839599609 2.333328247070313 42.99999618530273 3.896671295166016 42.99999618530273 5.833328247070313 L 42.99999618530273 25.66666984558105 L 45.33333587646484 25.66666984558105 L 45.33333587646484 12.83332824707031 C 45.33333587646484 10.89667129516602 46.89666748046875 9.333328247070313 48.83332443237305 9.333328247070313 C 50.76999664306641 9.333328247070313 52.33332443237305 10.89667129516602 52.33332443237305 12.83332824707031 L 52.33332443237305 46.66666030883789 C 52.33332443237305 51.79999923706055 48.13333511352539 56 42.99999618530273 56 L 25.96666526794434 56 C 23.4466667175293 56 21.06666564941406 54.99665832519531 19.31666564941406 53.22333145141602 L 0.9999961853027344 34.60333251953125 C 0.9999961853027344 34.60333251953125 3.939994812011719 31.73332977294922 4.033336639404297 31.68666076660156 C 4.546665191650391 31.24333000183105 5.176666259765625 31.01000022888184 5.876667022705078 31.01000022888184 C 6.389995574951172 31.01000022888184 6.856666564941406 31.14999961853027 7.276664733886719 31.38332939147949 C 7.3699951171875 31.40666961669922 17.33333587646484 37.12332916259766 17.33333587646484 37.12332916259766 L 17.33333587646484 9.333328247070313 C 17.33333587646484 7.396671295166016 18.89666748046875 5.833328247070313 20.83333587646484 5.833328247070313 C 22.76999664306641 5.833328247070313 24.33333587646484 7.396671295166016 24.33333587646484 9.333328247070313 L 24.33333587646484 25.66666984558105 L 26.66666603088379 25.66666984558105 L 26.66666603088379 3.5 C 26.66666603088379 1.563331604003906 28.22999572753906 0 30.16666603088379 0 Z" stroke="none" fill="#c1f7d5"/>
    </g>
  </g>
</svg>
