<svg xmlns="http://www.w3.org/2000/svg" xmlns:xlink="http://www.w3.org/1999/xlink" width="56" height="54.223" viewBox="0 0 56 54.223">
  <defs>
    <clipPath id="clip-path">
      <rect width="56" height="54.223" fill="none"/>
    </clipPath>
  </defs>
  <g id="Icon_heart" data-name="Icon heart" clip-path="url(#clip-path)">
    <g id="Path_14" data-name="Path 14" transform="translate(-2 -3)" fill="none">
      <path d="M30,57.223l-4.06-3.9C11.52,39.523,2,30.422,2,19.252,2,10.151,8.776,3,17.4,3A16.424,16.424,0,0,1,30,9.176,16.424,16.424,0,0,1,42.6,3C51.224,3,58,10.151,58,19.252c0,11.17-9.52,20.271-23.94,34.1Z" stroke="none"/>
      <path d="M 30.00262832641602 55.83888626098633 L 33.36783981323242 52.63037872314453 L 33.47837829589844 52.52436828613281 C 40.49845123291016 45.79198837280273 46.56119918823242 39.97770690917969 50.67839050292969 34.65179824829102 C 52.81180953979492 31.89206886291504 54.34793853759766 29.36898803710938 55.37454986572266 26.93839836120605 C 56.46831130981445 24.34884834289551 57 21.83465766906738 57 19.25214767456055 C 57 10.699538230896 50.67477035522461 3.999997854232788 42.59999847412109 3.999997854232788 C 38.13003158569336 3.999997854232788 33.71067810058594 6.169638156890869 30.77824020385742 9.803788185119629 L 30 10.76824760437012 L 29.22175979614258 9.803788185119629 C 26.28931999206543 6.169638156890869 21.86997032165527 3.999997854232788 17.39999961853027 3.999997854232788 C 9.325229644775391 3.999997854232788 3 10.699538230896 3 19.25214767456055 C 3 21.83909797668457 3.533509969711304 24.35744857788086 4.631010055541992 26.95109748840332 C 5.661089897155762 29.38542747497559 7.202330112457275 31.91210746765137 9.342789649963379 34.67549896240234 C 13.47340965270996 40.00824737548828 19.55455017089844 45.82773971557617 26.5959300994873 52.56613922119141 L 26.63279914855957 52.6014289855957 L 30.00262832641602 55.83888626098633 M 30 57.22307968139648 L 25.94000053405762 53.32255935668945 C 11.52000045776367 39.52300643920898 2 30.42179870605469 2 19.25214767456055 C 2 10.15094757080078 8.776000022888184 2.999997854232788 17.39999961853027 2.999997854232788 C 22.27199935913086 2.999997854232788 26.94799995422363 5.393497943878174 30 9.175817489624023 C 33.05199813842773 5.393497943878174 37.72800064086914 2.999997854232788 42.59999847412109 2.999997854232788 C 51.2239990234375 2.999997854232788 58 10.15094757080078 58 19.25214767456055 C 58 30.42179870605469 48.47999954223633 39.52300643920898 34.06000137329102 53.35211944580078 L 30 57.22307968139648 Z" stroke="none" fill="#c1f7d5"/>
    </g>
  </g>
</svg>
