<svg xmlns="http://www.w3.org/2000/svg" xmlns:xlink="http://www.w3.org/1999/xlink" width="53.846" height="56" viewBox="0 0 53.846 56">
  <defs>
    <clipPath id="clip-path">
      <rect width="53.846" height="56" fill="none"/>
    </clipPath>
  </defs>
  <g id="Icon_person" data-name="Icon person" clip-path="url(#clip-path)">
    <g id="Path_5" data-name="Path 5" transform="translate(-3 -2)" fill="none">
      <path d="M55.35,13.2A108.332,108.332,0,0,1,29.923,16,108.332,108.332,0,0,1,4.5,13.2L3,18.8a112.7,112.7,0,0,0,17.949,2.8V58h5.983V41.2h5.983V58H38.9V21.6a112.7,112.7,0,0,0,17.949-2.8Zm-25.427,0a5.818,5.818,0,0,0,5.983-5.6A5.818,5.818,0,0,0,29.923,2,5.818,5.818,0,0,0,23.94,7.6,5.818,5.818,0,0,0,29.923,13.2Z" stroke="none"/>
      <path d="M 29.9230785369873 3.000003814697266 C 28.5863094329834 3.000003814697266 27.32837677001953 3.488353729248047 26.38100814819336 4.375080108642578 C 25.45187759399414 5.244762420654297 24.94017791748047 6.390052795410156 24.94017791748047 7.600002288818359 C 24.94017791748047 8.809951782226563 25.45187759399414 9.955242156982422 26.38100814819336 10.82492065429688 C 27.32837677001953 11.71165084838867 28.5863094329834 12.20000076293945 29.9230785369873 12.20000076293945 C 31.25984764099121 12.20000076293945 32.51777648925781 11.71165084838867 33.46514892578125 10.82492065429688 C 34.394287109375 9.955242156982422 34.90599060058594 8.809951782226563 34.90599060058594 7.600002288818359 C 34.90599060058594 6.390052795410156 34.394287109375 5.244762420654297 33.46514892578125 4.375080108642578 C 32.51777648925781 3.488353729248047 31.25984764099121 3.000003814697266 29.9230785369873 3.000003814697266 M 54.63668060302734 14.40296936035156 C 47.53188705444336 16.08037185668945 38.80429458618164 17.00000381469727 29.9230785369873 17.00000381469727 C 21.04185104370117 17.00000381469727 12.31426239013672 16.08037185668945 5.209476470947266 14.40296936035156 L 4.229774475097656 18.07095718383789 C 9.137592315673828 19.2342643737793 15.05539703369141 20.12796401977539 21.02803039550781 20.60315322875977 L 21.9487190246582 20.6764030456543 L 21.9487190246582 21.60000228881836 L 21.9487190246582 57 L 25.9316291809082 57 L 25.9316291809082 41.20000457763672 L 25.9316291809082 40.20000457763672 L 26.9316291809082 40.20000457763672 L 32.91452789306641 40.20000457763672 L 33.91452789306641 40.20000457763672 L 33.91452789306641 41.20000457763672 L 33.91452789306641 57 L 37.89743804931641 57 L 37.89743804931641 21.60000228881836 L 37.89743804931641 20.6764030456543 L 38.81813049316406 20.60315322875977 C 44.79074859619141 20.12796401977539 50.70855712890625 19.2342643737793 55.61637878417969 18.07095718383789 L 54.63668060302734 14.40296936035156 M 29.9230785369873 2.000003814697266 C 33.21367645263672 2.000003814697266 35.90599060058594 4.520000457763672 35.90599060058594 7.600002288818359 C 35.90599060058594 10.68000030517578 33.21367645263672 13.20000076293945 29.9230785369873 13.20000076293945 C 26.63247680664063 13.20000076293945 23.94017791748047 10.68000030517578 23.94017791748047 7.600002288818359 C 23.94017791748047 4.520000457763672 26.63247680664063 2.000003814697266 29.9230785369873 2.000003814697266 Z M 4.4957275390625 13.20000076293945 C 12.30341720581055 15.16000366210938 21.45726776123047 16.00000381469727 29.9230785369873 16.00000381469727 C 38.38888931274414 16.00000381469727 47.54272842407227 15.16000366210938 55.35042953491211 13.20000076293945 L 56.84615707397461 18.80000305175781 C 51.28204727172852 20.20000076293945 44.88034057617188 21.12400054931641 38.89743804931641 21.60000228881836 L 38.89743804931641 58 L 32.91452789306641 58 L 32.91452789306641 41.20000457763672 L 26.9316291809082 41.20000457763672 L 26.9316291809082 58 L 20.9487190246582 58 L 20.9487190246582 21.60000228881836 C 14.9658203125 21.12400054931641 8.564098358154297 20.20000076293945 3 18.80000305175781 L 4.4957275390625 13.20000076293945 Z" stroke="none" fill="#c1f7d5"/>
    </g>
  </g>
</svg>
