<svg xmlns="http://www.w3.org/2000/svg" xmlns:xlink="http://www.w3.org/1999/xlink" width="56" height="56" viewBox="0 0 56 56">
  <defs>
    <clipPath id="clip-path">
      <rect width="56" height="56" fill="none"/>
    </clipPath>
  </defs>
  <g id="Icon_sun" data-name="Icon sun" clip-path="url(#clip-path)">
    <g id="Path_10" data-name="Path 10" transform="translate(-0.69 -0.69)" fill="none">
      <path d="M48.5,36.885,56.69,28.69,48.5,20.5V8.885H36.885L28.69.69,20.5,8.885H8.885V20.5L.69,28.69l8.195,8.195V48.5H20.5L28.69,56.69,36.885,48.5H48.5V36.885ZM28.69,43.544A14.854,14.854,0,1,1,43.544,28.69,14.866,14.866,0,0,1,28.69,43.544Z" stroke="none"/>
      <path d="M 28.69000053405762 55.27577972412109 L 36.17741012573242 47.78837203979492 L 36.47031021118164 47.49547958374023 L 36.884521484375 47.49547958374023 L 47.49547958374023 47.49547958374023 L 47.49547958374023 36.884521484375 L 47.49547958374023 36.47031021118164 L 47.78837203979492 36.17741012573242 L 55.27577972412109 28.69000053405762 L 47.78837203979492 21.20259094238281 L 47.49547958374023 20.90969085693359 L 47.49547958374023 20.49547958374023 L 47.49547958374023 9.884520530700684 L 36.884521484375 9.884520530700684 L 36.47031021118164 9.884520530700684 L 36.17741012573242 9.591630935668945 L 28.69000053405762 2.104220628738403 L 21.20259094238281 9.591630935668945 L 20.90969085693359 9.884520530700684 L 20.49547958374023 9.884520530700684 L 9.884520530700684 9.884520530700684 L 9.884520530700684 20.49547958374023 L 9.884520530700684 20.90969085693359 L 9.591630935668945 21.20259094238281 L 2.104220628738403 28.69000053405762 L 9.591630935668945 36.17741012573242 L 9.884520530700684 36.47031021118164 L 9.884520530700684 36.884521484375 L 9.884520530700684 47.49547958374023 L 20.49547958374023 47.49547958374023 L 20.90969085693359 47.49547958374023 L 21.20259094238281 47.78837203979492 L 28.69000053405762 55.27577972412109 M 28.69000053405762 12.8358907699585 C 37.43199157714844 12.8358907699585 44.54410934448242 19.94801139831543 44.54410934448242 28.69000053405762 C 44.54410934448242 37.43199157714844 37.43199157714844 44.54410934448242 28.69000053405762 44.54410934448242 C 19.94801139831543 44.54410934448242 12.8358907699585 37.43199157714844 12.8358907699585 28.69000053405762 C 12.8358907699585 19.94801139831543 19.94801139831543 12.8358907699585 28.69000053405762 12.8358907699585 M 28.69000053405762 56.69000244140625 L 20.49547958374023 48.49547958374023 L 8.884520530700684 48.49547958374023 L 8.884520530700684 36.884521484375 L 0.6900005340576172 28.69000053405762 L 8.884520530700684 20.49547958374023 L 8.884520530700684 8.884520530700684 L 20.49547958374023 8.884520530700684 L 28.69000053405762 0.6900005340576172 L 36.884521484375 8.884520530700684 L 48.49547958374023 8.884520530700684 L 48.49547958374023 20.49547958374023 L 56.69000244140625 28.69000053405762 L 48.49547958374023 36.884521484375 L 48.49547958374023 48.49547958374023 L 36.884521484375 48.49547958374023 L 28.69000053405762 56.69000244140625 Z M 28.69000053405762 13.8358907699585 C 20.49547958374023 13.8358907699585 13.8358907699585 20.49547958374023 13.8358907699585 28.69000053405762 C 13.8358907699585 36.884521484375 20.49547958374023 43.54410934448242 28.69000053405762 43.54410934448242 C 36.884521484375 43.54410934448242 43.54410934448242 36.884521484375 43.54410934448242 28.69000053405762 C 43.54410934448242 20.49547958374023 36.884521484375 13.8358907699585 28.69000053405762 13.8358907699585 Z" stroke="none" fill="#c1f7d5"/>
    </g>
  </g>
</svg>
